<?xml version="1.0" encoding="UTF-8"?>
<svg id="Layer_1" data-name="Layer 1" xmlns="http://www.w3.org/2000/svg" xmlns:xlink="http://www.w3.org/1999/xlink" viewBox="0 0 901 303">
  <defs>
    <style>
      .cls-1 {
        fill: #606060;
      }

      .cls-1, .cls-2 {
        stroke-width: 0px;
      }

      .cls-2 {
        fill: #fff;
      }
    </style>
  </defs>
  <g>
    <g>
      <path class="cls-1" d="M318.56,177.47V20.35h76.76c19.75,0,34.6,3.74,44.55,11.22,9.95,7.48,14.93,17.36,14.93,29.63,0,8.23-2.02,15.37-6.06,21.43-4.04,6.06-9.62,10.74-16.72,14.03-7.11,3.29-15.15,4.94-24.13,4.94l4.26-9.43c9.88,0,18.59,1.65,26.15,4.94,7.55,3.29,13.5,8.08,17.84,14.36,4.34,6.28,6.51,13.99,6.51,23.12,0,13.47-5.31,23.98-15.94,31.53-10.63,7.56-26.26,11.33-46.91,11.33h-81.25ZM354.7,150.08h42.64c9.28,0,16.38-1.57,21.32-4.71,4.94-3.14,7.41-8,7.41-14.59s-2.47-11.67-7.41-14.81c-4.94-3.14-12.05-4.71-21.32-4.71h-45.34v-26.49h38.83c8.83,0,15.6-1.53,20.31-4.6,4.71-3.07,7.07-7.74,7.07-14.03s-2.36-10.92-7.07-13.92c-4.71-2.99-11.49-4.49-20.31-4.49h-36.14v102.35Z"/>
      <path class="cls-1" d="M526.4,148.29h85.51v29.18h-121.65V20.35h118.73v29.18h-82.6v98.76ZM523.71,83.42h75.64v28.5h-75.64v-28.5Z"/>
      <path class="cls-1" d="M692.71,180.16c-12.57,0-24.65-1.68-36.25-5.05-11.6-3.37-20.91-7.74-27.94-13.13l12.34-27.38c6.58,4.79,14.51,8.72,23.79,11.78,9.28,3.07,18.63,4.6,28.06,4.6,7.18,0,12.98-.75,17.39-2.24,4.41-1.49,7.67-3.48,9.76-5.95,2.09-2.47,3.14-5.35,3.14-8.64,0-4.19-1.65-7.52-4.94-9.99-3.29-2.47-7.67-4.49-13.13-6.06-5.46-1.57-11.41-3.06-17.84-4.49-6.44-1.42-12.91-3.14-19.41-5.16-6.51-2.02-12.5-4.71-17.96-8.08-5.46-3.37-9.8-7.78-13.02-13.24-3.22-5.46-4.83-12.31-4.83-20.54,0-8.98,2.39-17.17,7.18-24.58,4.79-7.41,12.08-13.32,21.88-17.73,9.8-4.41,22.11-6.62,36.92-6.62,9.88,0,19.64,1.2,29.29,3.59,9.65,2.4,18.07,5.84,25.25,10.32l-11.45,27.38c-7.03-4.04-14.29-7.07-21.77-9.09-7.48-2.02-14.67-3.03-21.55-3.03s-12.94.79-17.28,2.36c-4.34,1.57-7.52,3.7-9.54,6.4-2.02,2.69-3.03,5.69-3.03,8.98,0,4.19,1.64,7.56,4.94,10.1,3.29,2.55,7.63,4.53,13.02,5.95,5.39,1.42,11.37,2.84,17.96,4.26,6.58,1.42,13.09,3.18,19.53,5.27,6.43,2.1,12.34,4.75,17.73,7.97,5.39,3.22,9.76,7.56,13.13,13.02,3.37,5.46,5.05,12.23,5.05,20.31,0,8.83-2.43,16.91-7.29,24.24-4.86,7.33-12.23,13.24-22.11,17.73-9.88,4.49-22.22,6.73-37.03,6.73Z"/>
      <path class="cls-1" d="M814.36,177.47V49.98h-50.28v-29.63h136.91v29.63h-50.28v127.49h-36.36Z"/>
    </g>
    <g>
      <rect class="cls-1" x="318.78" y="215.34" width="582" height="70"/>
      <g>
        <path class="cls-2" d="M427.26,275.11v-50.4h24.62c6.34,0,11.1,1.2,14.29,3.6,3.19,2.4,4.79,5.57,4.79,9.5,0,2.64-.65,4.93-1.94,6.88-1.3,1.94-3.08,3.44-5.36,4.5-2.28,1.06-4.86,1.58-7.74,1.58l1.37-3.02c3.17,0,5.96.53,8.39,1.58,2.42,1.06,4.33,2.59,5.72,4.61,1.39,2.02,2.09,4.49,2.09,7.42,0,4.32-1.7,7.69-5.11,10.12-3.41,2.42-8.42,3.64-15.05,3.64h-26.06ZM438.85,266.32h13.68c2.98,0,5.26-.5,6.84-1.51,1.58-1.01,2.38-2.57,2.38-4.68s-.79-3.74-2.38-4.75-3.86-1.51-6.84-1.51h-14.54v-8.5h12.46c2.83,0,5-.49,6.52-1.48,1.51-.98,2.27-2.48,2.27-4.5s-.76-3.5-2.27-4.46c-1.51-.96-3.68-1.44-6.52-1.44h-11.59v32.83Z"/>
        <path class="cls-2" d="M609.85,275.97c-7.15,0-12.74-1.99-16.78-5.98-4.03-3.98-6.05-9.7-6.05-17.14v-28.15h11.74v27.86c0,4.75.98,8.2,2.95,10.33,1.97,2.14,4.7,3.2,8.21,3.2s6.31-1.07,8.28-3.2c1.97-2.14,2.95-5.58,2.95-10.33v-27.86h11.45v28.15c0,7.44-2.02,13.15-6.05,17.14-4.03,3.98-9.6,5.98-16.7,5.98Z"/>
        <path class="cls-2" d="M761.12,275.11v-20.59l2.66,7.06-22.25-36.86h12.46l16.99,28.22h-7.13l17.06-28.22h11.38l-22.1,36.86,2.66-7.06v20.59h-11.74Z"/>
      </g>
    </g>
  </g>
  <image width="512" height="512" transform="scale(.59)" xlink:href="../Downloads/bags-shopping.png"/>
</svg>